<svg width="131" height="40" viewBox="0 0 131 40" fill="none" xmlns="http://www.w3.org/2000/svg">
<g id="RS LOGO" clip-path="url(#clip0_12193_4612)">
<path id="Vector" fill-rule="evenodd" clip-rule="evenodd" d="M33.0332 24.5146V25.0427H130.15V24.5146H33.0332Z" fill="#FBBA1D"/>
<path id="Vector_2" d="M38.0543 39.4196C37.8472 39.4048 37.8177 39.4196 37.8177 38.8395C37.8177 38.3412 37.8325 38.2519 38.0913 38.2073L38.2466 38.185V37.9767H36.0133V38.185L36.3979 38.237C36.7972 38.3114 36.7972 38.3412 36.7972 38.8841V39.6428C36.5975 39.6725 36.3979 39.6948 36.1982 39.6948C35.0076 39.6948 34.1794 38.7949 34.1794 37.1958C34.1794 35.8718 34.6823 34.8454 35.9394 34.8454C37.2261 34.8454 37.4109 35.7528 37.5293 36.2363L37.8325 36.1991C37.8325 35.6636 37.7585 35.2322 37.6624 34.8529C37.3148 34.6892 36.8637 34.5479 36.0429 34.5479C34.5417 34.5479 33.0332 35.2917 33.0332 37.2553C33.0332 39.256 34.4456 39.9998 36.0947 39.9998C36.982 39.9998 37.8029 39.6948 38.0765 39.6056L38.0543 39.4196ZM44.0959 39.3081C43.985 39.3676 43.6522 39.5386 43.2307 39.5386C42.151 39.5386 41.9144 38.6833 41.8331 38.2147C42.6465 38.0213 43.5191 37.7685 44.1994 37.4561C44.1107 36.9949 43.9036 36.1693 42.6391 36.1693C41.7443 36.1693 40.8422 36.8759 40.8422 38.1329C40.8422 39.4048 41.7517 39.9998 42.6835 39.9998C43.4747 39.9998 43.9702 39.6576 44.1698 39.494L44.0959 39.3081ZM41.7813 37.8428C41.7813 37.7015 41.7813 36.4669 42.469 36.4669C42.9645 36.4669 43.2011 36.9354 43.2529 37.5007C42.7722 37.6569 42.2768 37.761 41.7813 37.8428ZM47.1426 39.1296C47.1426 39.5461 47.1056 39.6353 46.8394 39.6576L46.6693 39.6725V39.8808H48.5698V39.6725L48.4071 39.6576C48.1261 39.6353 48.0817 39.5461 48.0817 39.1296V36.928C48.2074 36.7867 48.4145 36.6231 48.7398 36.6231C49.5533 36.6231 49.5533 37.3817 49.5533 38.0065V39.1296C49.5533 39.5461 49.5163 39.6353 49.2279 39.6576L49.0652 39.6725V39.8808H50.9805V39.6725L50.8178 39.6576C50.5368 39.6353 50.4924 39.5461 50.4924 39.1296V37.5751C50.4924 36.504 50.0191 36.1693 49.3092 36.1693C48.6437 36.1693 48.2666 36.452 48.0669 36.6231V36.1693C47.6602 36.1917 47.2461 36.2512 46.6545 36.452V36.6826C46.6841 36.6751 46.7876 36.6305 46.9059 36.6305C47.1426 36.6305 47.1426 36.9875 47.1426 37.2627V39.1296ZM56.8224 39.3081C56.7115 39.3676 56.3787 39.5386 55.9572 39.5386C54.8776 39.5386 54.6409 38.6833 54.5596 38.2147C55.373 38.0213 56.2456 37.7685 56.9185 37.4561C56.8372 36.9949 56.6301 36.1693 55.3656 36.1693C54.4708 36.1693 53.5687 36.8759 53.5687 38.1329C53.5687 39.4048 54.4782 39.9998 55.4026 39.9998C56.2012 39.9998 56.6967 39.6576 56.8963 39.494L56.8224 39.3081ZM54.5078 37.8428C54.5078 37.7015 54.5078 36.4669 55.1955 36.4669C55.691 36.4669 55.9202 36.9354 55.9794 37.5007C55.4987 37.6569 55.0033 37.761 54.5078 37.8428ZM59.8617 39.1296C59.8617 39.5461 59.8173 39.6353 59.5363 39.6576L59.3736 39.6725V39.8808H61.4442V39.6725L61.1336 39.6353C60.8008 39.5981 60.8008 39.494 60.8008 38.9287V37.0098C60.9043 36.8834 61.0005 36.8536 61.1188 36.8536C61.2297 36.8536 61.6808 37.0396 61.8065 37.0768C62.0579 36.8982 62.1689 36.7644 62.2798 36.5115C62.1689 36.3925 61.9692 36.1693 61.6438 36.1693C61.2445 36.1693 60.9117 36.5487 60.7564 36.7123C60.7564 36.4743 60.7195 36.3107 60.6899 36.1693C60.1279 36.2512 59.9652 36.3107 59.3736 36.504V36.7123C59.418 36.6974 59.5067 36.6602 59.625 36.6602C59.8617 36.6602 59.8617 37.0172 59.8617 37.2924V39.1296ZM68.0921 39.6948C68.0699 39.7023 68.0552 39.7023 68.0256 39.7023C67.5227 39.7023 67.5227 39.1221 67.5227 38.5494V37.5825C67.5227 36.6826 67.3526 36.1693 66.3617 36.1693C65.5705 36.1693 65.0307 36.6156 64.6757 37.0024C64.7349 37.1958 64.7792 37.2553 64.8902 37.404H64.9641C65.0676 37.166 65.2969 36.6231 65.9033 36.6231C66.4579 36.6231 66.5836 37.0396 66.5836 37.5081V37.7015C65.9328 37.8726 64.55 38.1403 64.55 39.137C64.55 39.6428 64.9641 39.9998 65.5779 39.9998C66.1251 39.9998 66.4505 39.7543 66.6723 39.5981C66.798 39.7915 66.9385 39.9998 67.4414 39.9998C67.7889 39.9998 68.0108 39.8585 68.1143 39.799L68.0921 39.6948ZM66.5836 38.9213C66.5836 39.0701 66.6058 39.2709 66.6132 39.3527C66.554 39.3973 66.4061 39.5386 66.1325 39.5386C65.7849 39.5386 65.5557 39.256 65.5557 38.8767C65.5557 38.2891 66.0512 38.0511 66.4948 38.0511C66.5318 38.0511 66.554 38.0585 66.5836 38.0585V38.9213ZM70.5028 39.8808H72.4181V39.6725L72.2554 39.6576C71.9744 39.6279 71.93 39.5461 71.93 39.1296V34.1909C71.5085 34.1909 71.1536 34.2355 70.5028 34.3694V34.5777C70.5324 34.5777 70.6286 34.5628 70.7247 34.5628C70.9909 34.5628 70.9909 34.8677 70.9909 35.5669V39.1296C70.9909 39.5461 70.9539 39.6279 70.6655 39.6576L70.5028 39.6725V39.8808ZM80.9296 35.8272C80.9296 35.0463 80.9296 34.9496 81.2993 34.8975L81.4842 34.8752V34.6669H79.3471V34.8752L79.5393 34.8975C79.9091 34.9496 79.9091 35.0463 79.9091 35.8347V38.713C79.9091 39.494 79.9091 39.5907 79.5393 39.6502L79.3471 39.6725V39.8808H81.4842V39.6725L81.2993 39.6502C80.9296 39.5907 80.9296 39.494 80.9296 38.713V35.8272ZM84.6418 39.1296C84.6418 39.5461 84.6048 39.6353 84.3386 39.6576L84.1759 39.6725V39.8808H86.0764V39.6725L85.9063 39.6576C85.6253 39.6353 85.5883 39.5461 85.5883 39.1296V36.928C85.714 36.7867 85.9137 36.6231 86.2391 36.6231C87.0525 36.6231 87.0525 37.3817 87.0525 38.0065V39.1296C87.0525 39.5461 87.0155 39.6353 86.7345 39.6576L86.5718 39.6725V39.8808H88.4871V39.6725L88.317 39.6576C88.036 39.6353 87.999 39.5461 87.999 39.1296V37.5751C87.999 36.504 87.5184 36.1693 86.8085 36.1693C86.1429 36.1693 85.7658 36.452 85.5735 36.6231V36.1693C85.1594 36.1917 84.7453 36.2512 84.1537 36.452V36.6826C84.1907 36.6751 84.2942 36.6305 84.4051 36.6305C84.6418 36.6305 84.6418 36.9875 84.6418 37.2627V39.1296ZM93.5821 37.3668C93.5821 37.0396 93.5747 36.6974 93.4934 36.385C93.3085 36.2884 92.9684 36.1693 92.5543 36.1693C91.1566 36.1693 91.1566 37.1363 91.1566 37.2032C91.1566 38.4676 92.924 38.237 92.924 39.1742C92.924 39.4568 92.7317 39.6948 92.4064 39.6948C91.8148 39.6948 91.4598 39.0626 91.4154 38.6312H91.1049C91.1049 39.1072 91.164 39.4345 91.2454 39.7543C91.5264 39.8956 91.8665 39.9998 92.325 39.9998C93.3899 39.9998 93.8188 39.4717 93.8188 38.8618C93.8188 37.6495 92.0514 37.7833 92.0514 36.9577C92.0514 36.6826 92.2511 36.4669 92.4877 36.4669C93.0719 36.4669 93.242 37.1065 93.2715 37.3668H93.5821ZM99.4462 39.9998C99.8382 39.918 100.267 39.8064 100.629 39.68L100.615 39.4791C100.533 39.494 100.445 39.4866 100.393 39.4866C100.127 39.4866 100.127 39.1742 100.127 38.5271V36.1693C99.7198 36.1917 99.2836 36.2512 98.6994 36.452V36.6826C98.7289 36.6751 98.8325 36.6305 98.9508 36.6305C99.1874 36.6305 99.1874 36.9875 99.1874 37.2627V39.3453C99.0765 39.3973 98.8916 39.5386 98.5958 39.5386C97.8268 39.5386 97.7085 39.0106 97.7085 38.3858V36.1693C97.3017 36.1917 96.8654 36.2512 96.2812 36.452V36.6826C96.3108 36.6751 96.4144 36.6305 96.5327 36.6305C96.7619 36.6305 96.7619 36.9875 96.7619 37.2627V38.4081C96.7619 39.2858 96.8211 39.9998 98.0338 39.9998C98.6254 39.9998 98.9952 39.7395 99.2318 39.5981L99.4462 39.9998ZM103.661 39.1296C103.661 39.5461 103.624 39.6353 103.343 39.6576L103.173 39.6725V39.8808H105.251V39.6725L104.933 39.6353C104.608 39.5981 104.608 39.494 104.608 38.9287V37.0098C104.704 36.8834 104.8 36.8536 104.918 36.8536C105.029 36.8536 105.488 37.0396 105.606 37.0768C105.858 36.8982 105.968 36.7644 106.079 36.5115C105.968 36.3925 105.776 36.1693 105.443 36.1693C105.044 36.1693 104.711 36.5487 104.556 36.7123C104.556 36.4743 104.519 36.3107 104.497 36.1693C103.928 36.2512 103.765 36.3107 103.173 36.504V36.7123C103.225 36.6974 103.306 36.6602 103.425 36.6602C103.661 36.6602 103.661 37.0172 103.661 37.2924V39.1296ZM111.892 39.6948C111.87 39.7023 111.855 39.7023 111.833 39.7023C111.33 39.7023 111.33 39.1221 111.33 38.5494V37.5825C111.33 36.6826 111.152 36.1693 110.169 36.1693C109.37 36.1693 108.83 36.6156 108.475 37.0024C108.542 37.1958 108.579 37.2553 108.69 37.404H108.771C108.867 37.166 109.097 36.6231 109.703 36.6231C110.257 36.6231 110.383 37.0396 110.383 37.5081V37.7015C109.732 37.8726 108.35 38.1403 108.35 39.137C108.35 39.6428 108.771 39.9998 109.378 39.9998C109.932 39.9998 110.25 39.7543 110.472 39.5981C110.598 39.7915 110.738 39.9998 111.241 39.9998C111.589 39.9998 111.818 39.8585 111.921 39.799L111.892 39.6948ZM110.383 38.9213C110.383 39.0701 110.413 39.2709 110.42 39.3527C110.354 39.3973 110.206 39.5386 109.94 39.5386C109.585 39.5386 109.355 39.256 109.355 38.8767C109.355 38.2891 109.851 38.0511 110.302 38.0511C110.331 38.0511 110.354 38.0585 110.383 38.0585V38.9213ZM114.798 39.1296C114.798 39.5461 114.761 39.6353 114.495 39.6576L114.332 39.6725V39.8808H116.233V39.6725L116.062 39.6576C115.781 39.6353 115.744 39.5461 115.744 39.1296V36.928C115.87 36.7867 116.07 36.6231 116.395 36.6231C117.209 36.6231 117.209 37.3817 117.209 38.0065V39.1296C117.209 39.5461 117.172 39.6353 116.891 39.6576L116.728 39.6725V39.8808H118.643V39.6725L118.481 39.6576C118.192 39.6353 118.155 39.5461 118.155 39.1296V37.5751C118.155 36.504 117.675 36.1693 116.972 36.1693C116.299 36.1693 115.922 36.452 115.73 36.6231V36.1693C115.323 36.1917 114.901 36.2512 114.317 36.452V36.6826C114.347 36.6751 114.45 36.6305 114.569 36.6305C114.798 36.6305 114.798 36.9875 114.798 37.2627V39.1296ZM124.367 39.4048C124.256 39.4419 123.931 39.5386 123.657 39.5386C122.866 39.5386 122.193 39.018 122.193 37.8428C122.193 37.0396 122.54 36.5635 123.043 36.5635C123.494 36.5635 123.768 36.8759 123.945 37.0768H124.012C124.212 36.8387 124.285 36.69 124.322 36.4297C124.115 36.2735 123.812 36.1693 123.25 36.1693C122.37 36.1693 121.187 36.7867 121.187 38.2519C121.187 39.4048 122.171 39.9998 123.028 39.9998C123.783 39.9998 124.189 39.7766 124.441 39.5981L124.367 39.4048ZM130.039 39.3081C129.928 39.3676 129.602 39.5386 129.173 39.5386C128.101 39.5386 127.865 38.6833 127.776 38.2147C128.597 38.0213 129.469 37.7685 130.142 37.4561C130.053 36.9949 129.854 36.1693 128.589 36.1693C127.695 36.1693 126.785 36.8759 126.785 38.1329C126.785 39.4048 127.702 39.9998 128.626 39.9998C129.418 39.9998 129.913 39.6576 130.12 39.494L130.039 39.3081ZM127.731 37.8428C127.731 37.7015 127.731 36.4669 128.412 36.4669C128.907 36.4669 129.144 36.9354 129.203 37.5007C128.722 37.6569 128.227 37.761 127.731 37.8428Z" fill="#16488B"/>
<path id="Vector_3" d="M33.4609 23.0123H36.8034V22.7147L36.3006 22.6701C35.7755 22.6181 35.7755 22.5437 35.7755 20.8404V19.0033H36.2932C36.5816 19.0033 36.9217 19.0033 37.1436 19.1818C37.321 19.338 37.639 19.8661 38.0014 20.5504L38.5486 21.6214C38.9627 22.3949 39.5987 23.0123 40.5082 23.0123H41.5731V22.7147C41.2699 22.7147 41.0185 22.6552 40.8854 22.5734C40.5378 22.38 39.9314 21.5545 39.3546 20.5057C38.9775 19.8363 38.5264 18.9513 38.3193 18.5571C39.0736 18.1926 40.2198 17.4265 40.2198 16.1324C40.2198 14.0201 38.3711 13.8267 37.0622 13.8267H33.4609V14.1242L33.9564 14.1688C34.4962 14.2209 34.4962 14.2953 34.4962 15.9911V20.8404C34.4962 22.5437 34.4962 22.6181 33.9564 22.6701L33.4609 22.7147V23.0123ZM35.7755 14.3994C36.0565 14.3399 36.3449 14.2878 36.6333 14.2878C37.713 14.2878 38.7704 14.7861 38.7704 16.415C38.7704 17.9844 37.7278 18.6166 36.5668 18.6166H35.7755V14.3994ZM44.6493 23.2205C46.4019 23.2205 48.0436 22.0751 48.0436 19.6727C48.0436 17.7538 46.6903 16.4671 44.7159 16.4671C43.0225 16.4671 41.3364 17.6571 41.3364 19.9628C41.3364 22.1495 42.8967 23.2205 44.6493 23.2205ZM42.6084 19.7992C42.6084 18.4604 43.1038 16.958 44.5384 16.958C46.1579 16.958 46.7716 18.3934 46.7716 20.0446C46.7716 21.5247 46.1431 22.7296 44.886 22.7296C43.3257 22.7296 42.6084 21.3388 42.6084 19.7992ZM53.2865 20.0446C53.671 19.1 54.307 17.5976 54.625 17.2778C54.7211 17.1811 54.8764 17.1216 54.9947 17.0844L55.2905 16.9877V16.6828H52.4879V16.9877L53.2199 17.1141C53.3826 17.1365 53.6341 17.1662 53.6341 17.3298C53.6341 17.724 52.2364 21.257 52.0737 21.6586L50.4986 17.791C50.4321 17.6273 50.3655 17.434 50.3655 17.3745C50.3655 17.2257 50.5948 17.1662 50.8018 17.1141L51.3417 16.9877V16.6828H48.1693V16.9877L48.5242 17.0993C49.064 17.2629 49.064 17.486 49.2415 17.9472L50.898 21.7181C51.0828 22.1495 51.3121 22.6776 51.3121 23.2503C51.3121 24.5593 49.9514 24.8494 49.175 25.5262C49.0788 25.6526 48.9975 25.9576 48.9679 26.2551C49.064 26.27 49.1454 26.2774 49.2415 26.2774C50.6244 26.2774 51.2603 24.8642 51.7853 23.5924L53.2865 20.0446ZM61.2359 22.6776C61.1768 22.7073 61.125 22.7296 60.9845 22.7296C60.2302 22.7296 60.2302 21.6883 60.2302 20.714V18.7281C60.2302 17.3075 59.8975 16.4671 58.3224 16.4671C56.8582 16.4671 55.9782 17.4042 55.5641 17.962C55.6602 18.2075 55.7712 18.3488 55.9191 18.5199H56.03C56.2962 17.9992 56.6438 17.1216 57.7456 17.1216C58.7809 17.1216 59.0249 17.9174 59.0249 18.8397V19.1595C57.8121 19.5165 55.4236 20.0595 55.4236 21.8668C55.4236 22.6329 56.1187 23.2205 57.1392 23.2205C58.2115 23.2205 58.7217 22.9304 59.1654 22.6329C59.3059 22.9304 59.5499 23.2205 60.2524 23.2205C60.8366 23.2205 61.125 22.9974 61.3025 22.8709L61.2359 22.6776ZM59.0249 19.814V22.1644C58.9288 22.2982 58.5886 22.7296 57.9748 22.7296C57.191 22.7296 56.6955 22.261 56.6955 21.4652C56.6955 20.1562 58.0488 19.814 58.8326 19.814H59.0249ZM61.9237 23.0123H64.9999V22.7147L64.6819 22.6701C64.1717 22.6181 64.0608 22.6181 64.0608 21.6512V12.9937C63.484 12.9937 62.3674 13.1201 61.9237 13.2168L61.968 13.5217L62.1751 13.492C62.1973 13.492 62.2934 13.4845 62.3674 13.4845C62.8628 13.4845 62.8628 14.1242 62.8628 15.2175V21.6512C62.8628 22.6181 62.7371 22.6181 62.2564 22.6701L61.9237 22.7147V23.0123ZM72.4391 17.3075C71.6922 16.8613 71.1007 16.415 71.1007 15.5969C71.1007 14.6597 71.8032 14.0796 72.6018 14.0796C74.1621 14.0796 74.384 15.2845 74.5245 15.9836H74.8646C74.8646 15.634 74.8351 14.5109 74.7241 14.0647C74.3692 13.8416 73.6815 13.6184 72.8237 13.6184C71.3595 13.6184 69.9545 14.325 69.9545 16.0282C69.9545 17.0695 70.6865 17.9323 71.4704 18.3637L72.3578 18.8471C73.43 19.338 74.273 20.0297 74.273 21.0487C74.273 22.1346 73.5705 22.7594 72.6166 22.7594C70.7235 22.7594 70.2133 21.1082 70.0654 20.1041L69.6217 20.2157C69.6217 21.0933 69.814 22.1197 70.0654 22.6627C70.4943 22.9304 71.1524 23.2205 72.2321 23.2205C73.6962 23.2205 75.4192 22.4991 75.4192 20.6173C75.4192 18.9513 74.2878 18.3637 73.1934 17.7389L72.4391 17.3075ZM83.5684 22.4247L83.243 22.4693C83.169 22.4842 83.0729 22.4842 83.0211 22.4842C82.6366 22.4842 82.6366 21.9115 82.6366 20.7289V16.4671C82.1485 16.4671 80.8914 16.8464 80.4921 16.9728L80.5513 17.3075L80.8545 17.2257C80.884 17.2257 80.9802 17.2108 81.0467 17.2108C81.4312 17.2108 81.4312 17.5976 81.4312 18.9587V22.1197C81.2242 22.2759 80.6992 22.566 79.9966 22.566C78.636 22.566 78.3402 21.7553 78.3402 20.6471V16.4671C77.8595 16.4671 76.6024 16.8464 76.2031 16.9728L76.2623 17.3075L76.5654 17.2257C76.5876 17.2257 76.6838 17.2108 76.7577 17.2108C77.1422 17.2108 77.1422 17.5976 77.1422 18.9587V20.714C77.1422 22.2313 77.3345 23.2205 79.3755 23.2205C80.4403 23.2205 81.0911 22.804 81.5052 22.5214C81.5717 22.8337 81.6975 23.0494 81.8084 23.2205C82.5257 23.0792 83.0359 22.9676 83.6571 22.7445L83.5684 22.4247ZM84.4262 23.0123H87.5024V22.7147L87.1844 22.6701C86.6742 22.6181 86.5633 22.5437 86.5633 21.6512V17.8728C86.8147 17.553 87.2584 17.1216 87.9831 17.1216C89.6321 17.1216 89.6321 18.4752 89.6321 19.7843V21.6512C89.6321 22.5437 89.5064 22.6181 89.0183 22.6701L88.693 22.7147V23.0123H91.7692V22.7147L91.4513 22.6701C90.941 22.6181 90.8301 22.5437 90.8301 21.6512V19.576C90.8301 17.9769 90.8301 16.4671 88.6782 16.4671C87.6281 16.4671 86.8812 17.0546 86.5633 17.3447V16.4671C86.0826 16.4671 84.8255 16.8315 84.4262 16.958L84.4853 17.2927L84.7885 17.2108C84.8107 17.2108 84.9068 17.196 84.9808 17.196C85.3653 17.196 85.3653 17.5827 85.3653 18.9513V21.6512C85.3653 22.5437 85.2396 22.6181 84.7589 22.6701L84.4262 22.7147V23.0123ZM99.6299 22.4024L99.3859 22.4395C99.3268 22.4544 99.2158 22.4544 99.1641 22.4544C98.7869 22.4544 98.7056 22.1346 98.7056 21.3983V12.9937C98.1288 12.9937 97.0122 13.1201 96.5685 13.2168L96.6128 13.5217L96.8199 13.492C96.8421 13.492 96.9382 13.4771 97.0122 13.4771C97.5076 13.4771 97.5076 14.1167 97.5076 15.2175V16.5935C97.2044 16.4968 96.8421 16.4671 96.5167 16.4671C94.8603 16.4671 92.664 17.4712 92.664 20.1339C92.664 22.3429 94.2909 23.2205 95.7255 23.2205C96.6794 23.2205 97.271 22.8189 97.589 22.6478C97.6703 22.8337 97.7517 23.0643 97.8552 23.2205C98.3211 23.161 99.0827 23.0123 99.7113 22.7222L99.6299 22.4024ZM97.5076 22.261C97.3375 22.3577 96.8273 22.566 96.4132 22.566C95.023 22.566 93.9359 21.4131 93.9359 19.643C93.9359 17.9323 94.8455 16.958 96.1248 16.958C96.7238 16.958 97.1749 17.1365 97.5076 17.4414V22.261ZM106.448 22.6776C106.389 22.7073 106.337 22.7296 106.197 22.7296C105.442 22.7296 105.442 21.6883 105.442 20.714V18.7281C105.442 17.3075 105.11 16.4671 103.534 16.4671C102.07 16.4671 101.19 17.4042 100.776 17.962C100.872 18.2075 100.983 18.3488 101.138 18.5199H101.242C101.508 17.9992 101.856 17.1216 102.958 17.1216C103.993 17.1216 104.237 17.9174 104.237 18.8397V19.1595C103.024 19.5165 100.636 20.0595 100.636 21.8668C100.636 22.6329 101.331 23.2205 102.351 23.2205C103.423 23.2205 103.934 22.9304 104.377 22.6329C104.518 22.9304 104.762 23.2205 105.464 23.2205C106.049 23.2205 106.337 22.9974 106.515 22.8709L106.448 22.6776ZM104.237 19.814V22.1644C104.141 22.2982 103.801 22.7296 103.194 22.7296C102.403 22.7296 101.908 22.261 101.908 21.4652C101.908 20.1562 103.261 19.814 104.045 19.814H104.237ZM107.121 23.0123H110.419V22.7147L110.101 22.6701C109.369 22.6181 109.258 22.6181 109.258 21.6512V17.9174C109.258 17.7092 109.48 17.3745 109.924 17.3745C110.116 17.3745 110.863 17.6125 111.055 17.6794C111.373 17.434 111.565 17.2257 111.757 16.891C111.58 16.7794 111.136 16.4671 110.707 16.4671C110.005 16.4671 109.413 17.1513 109.206 17.3745C109.206 17.0026 109.162 16.7051 109.11 16.4671C108.726 16.4671 107.801 16.7348 107.106 16.9877L107.217 17.3224L107.343 17.2778C107.454 17.248 107.565 17.196 107.676 17.196C108.06 17.196 108.06 17.5009 108.06 18.9364V21.6512C108.06 22.6181 107.934 22.6181 107.454 22.6701L107.121 22.7147V23.0123ZM117.94 22.6776C117.888 22.7073 117.829 22.7296 117.688 22.7296C116.934 22.7296 116.934 21.6883 116.934 20.714V18.7281C116.934 17.3075 116.601 16.4671 115.026 16.4671C113.569 16.4671 112.682 17.4042 112.268 17.962C112.364 18.2075 112.475 18.3488 112.63 18.5199H112.741C113 17.9992 113.347 17.1216 114.449 17.1216C115.484 17.1216 115.736 17.9174 115.736 18.8397V19.1595C114.516 19.5165 112.135 20.0595 112.135 21.8668C112.135 22.6329 112.822 23.2205 113.843 23.2205C114.915 23.2205 115.425 22.9304 115.869 22.6329C116.01 22.9304 116.254 23.2205 116.963 23.2205C117.54 23.2205 117.829 22.9974 118.006 22.8709L117.94 22.6776ZM115.736 19.814V22.1644C115.632 22.2982 115.292 22.7296 114.686 22.7296C113.895 22.7296 113.399 22.261 113.399 21.4652C113.399 20.1562 114.752 19.814 115.536 19.814H115.736ZM118.716 23.0123H121.792V22.7147L121.474 22.6701C120.964 22.6181 120.853 22.5139 120.853 21.6512V17.9472C121.06 17.7092 121.511 17.1216 122.339 17.1216C123.759 17.1216 123.759 18.5199 123.759 19.0628V21.6512C123.759 22.5139 123.641 22.6181 123.153 22.6701L122.82 22.7147V23.0123H125.904V22.7147L125.586 22.6701C125.076 22.6181 124.965 22.5139 124.965 21.6512V19.6876C124.965 18.505 124.95 18.2372 124.891 17.791C125.283 17.3893 125.719 17.1216 126.34 17.1216C127.871 17.1216 127.871 18.4455 127.871 19.7173V21.6512C127.871 22.5139 127.753 22.6181 127.264 22.6701L126.932 22.7147V23.0123H130.015V22.7147L129.697 22.6701C129.187 22.6181 129.076 22.5139 129.076 21.6512V19.3826C129.076 17.9992 129.076 16.4671 126.813 16.4671C125.8 16.4671 125.046 17.0993 124.713 17.3745C124.565 16.9728 124.062 16.4671 122.909 16.4671C121.814 16.4671 121.171 17.1141 120.853 17.4191V16.4671C120.365 16.4671 119.115 16.8315 118.716 16.958L118.768 17.2927L119.071 17.2108C119.101 17.2108 119.197 17.196 119.263 17.196C119.648 17.196 119.648 17.5827 119.648 18.9513V21.6512C119.648 22.5139 119.529 22.6181 119.041 22.6701L118.716 22.7147V23.0123Z" fill="#16488B"/>
<g id="Group 1171280404">
<path id="Vector_4" fill-rule="evenodd" clip-rule="evenodd" d="M28.093 0H0V10.1674C0 20.6768 5.64966 29.7211 14.0428 34.5407C27.2648 26.6791 27.4053 13.7672 28.093 0Z" fill="#16488B"/>
<g id="Group">
<path id="Vector_5" fill-rule="evenodd" clip-rule="evenodd" d="M27.7843 7.01362C27.8583 5.91284 27.9174 4.80462 27.9766 3.68896L26.5938 6.6938L27.7843 7.01362Z" fill="#FBBA1D"/>
<path id="Vector_6" fill-rule="evenodd" clip-rule="evenodd" d="M12.0334 13.15L14.947 14.5259L15.2872 13.15L11.3457 12.8896L12.0334 13.15Z" fill="#FBBA1D"/>
<path id="Vector_7" fill-rule="evenodd" clip-rule="evenodd" d="M11.3457 19.9555L15.2872 19.6952L14.9248 18.23L11.3457 19.9555Z" fill="#FBBA1D"/>
<path id="Vector_8" fill-rule="evenodd" clip-rule="evenodd" d="M14.9453 26.2477L18.199 24.0015L17.149 22.9453L14.9453 26.2477Z" fill="#FBBA1D"/>
<path id="Vector_9" fill-rule="evenodd" clip-rule="evenodd" d="M15.3742 7.20695L17.1712 9.87709L18.199 8.9325L14.9453 6.60449L15.3742 7.20695Z" fill="#FBBA1D"/>
<path id="Vector_10" fill-rule="evenodd" clip-rule="evenodd" d="M21.1946 3.76348L21.4534 7.03608L22.8215 6.60469L21.1133 3.07178L21.1946 3.76348Z" fill="#FBBA1D"/>
<path id="Vector_11" fill-rule="evenodd" clip-rule="evenodd" d="M23.9375 6.51534H25.3943L24.7066 0.550293L23.9375 6.51534Z" fill="#FBBA1D"/>
<path id="Vector_12" fill-rule="evenodd" clip-rule="evenodd" d="M16.9126 3.16069L19.1384 8.1514L20.3364 7.46713L16.4023 2.0376L16.9126 3.16069Z" fill="#FBBA1D"/>
<path id="Vector_13" fill-rule="evenodd" clip-rule="evenodd" d="M11.3454 8.84356L15.8045 12.1162L16.4035 10.8294L10.4062 8.15186L11.3454 8.84356Z" fill="#FBBA1D"/>
<path id="Vector_14" fill-rule="evenodd" clip-rule="evenodd" d="M8.17969 16.4226L14.7759 17.1143V15.7383L8.17969 16.4226Z" fill="#FBBA1D"/>
<path id="Vector_15" fill-rule="evenodd" clip-rule="evenodd" d="M10.3164 24.6929L16.4024 22.0228L15.7146 20.8179L10.3164 24.6929Z" fill="#FBBA1D"/>
<path id="Vector_16" fill-rule="evenodd" clip-rule="evenodd" d="M16.4023 30.8072L20.3364 25.4669L19.0571 24.6934C18.1401 26.709 17.2823 28.7767 16.4023 30.8072Z" fill="#FBBA1D"/>
<path id="Vector_17" fill-rule="evenodd" clip-rule="evenodd" d="M23.1089 25.7866C18.635 25.0428 15.2852 21.1157 15.2852 16.5118C15.2852 11.2533 19.4854 7.03613 24.7062 7.03613C25.771 7.03613 26.8285 7.19232 27.7455 7.57909C27.2648 14.2358 26.2887 20.4761 23.1089 25.7866Z" fill="#FBBA1D"/>
<path id="Vector_18" fill-rule="evenodd" clip-rule="evenodd" d="M21.1875 28.5309C21.7865 27.7946 22.3263 27.0434 22.8144 26.2624L21.365 25.8979L21.1875 28.5309Z" fill="#FBBA1D"/>
</g>
</g>
</g>
<defs>
<clipPath id="clip0_12193_4612">
<rect width="130.149" height="40" fill="white"/>
</clipPath>
</defs>
</svg>
